HIERARCHY
ROOT Hips
{
 OFFSET 0.000000 0.000000 0.000000
 CHANNELS 6 Xposition Yposition Zposition Yrotation Xrotation Zrotation
 JOINT Chest
 {
  OFFSET 0.000000 9.585900 0.002600
  CHANNELS 3 Yrotation Xrotation Zrotation
  JOINT Chest2
  {
   OFFSET 0.000000 9.601200 -0.005300
   CHANNELS 3 Yrotation Xrotation Zrotation
   JOINT Chest3
   {
    OFFSET 0.000000 9.561800 0.000000
    CHANNELS 3 Yrotation Xrotation Zrotation
    JOINT Chest4
    {
     OFFSET 0.000000 9.552100 0.000000
     CHANNELS 3 Yrotation Xrotation Zrotation
     JOINT Neck
     {
      OFFSET 0.000000 14.453000 0.000000
      CHANNELS 3 Yrotation Xrotation Zrotation
      JOINT Head
      {
       OFFSET 0.000000 8.936500 -0.011300
       CHANNELS 3 Yrotation Xrotation Zrotation
       End Site
       {
        OFFSET 0.000000 17.073600 -0.006000
       }
      }
     }
     JOINT RightCollar
     {
      OFFSET -2.921100 9.558500 0.000000
      CHANNELS 3 Yrotation Xrotation Zrotation
      JOINT RightShoulder
      {
       OFFSET -13.519700 0.000000 0.000000
       CHANNELS 3 Yrotation Xrotation Zrotation
       JOINT RightElbow
       {
        OFFSET 0.000000 -29.696600 0.000000
        CHANNELS 3 Yrotation Xrotation Zrotation
        JOINT RightWrist
        {
         OFFSET 0.000000 -24.004700 0.000000
         CHANNELS 3 Yrotation Xrotation Zrotation
         End Site
         {
          OFFSET 0.000000 -17.728500 0.000000
         }
        }
       }
      }
     }
     JOINT LeftCollar
     {
      OFFSET 2.921100 9.558500 0.000000
      CHANNELS 3 Yrotation Xrotation Zrotation
      JOINT LeftShoulder
      {
       OFFSET 13.519700 0.000000 0.000000
       CHANNELS 3 Yrotation Xrotation Zrotation
       JOINT LeftElbow
       {
        OFFSET 0.000000 -29.696600 0.000000
        CHANNELS 3 Yrotation Xrotation Zrotation
        JOINT LeftWrist
        {
         OFFSET 0.000000 -24.004700 0.000000
         CHANNELS 3 Yrotation Xrotation Zrotation
         End Site
         {
          OFFSET 0.000000 -17.728500 0.000000
         }
        }
       }
      }
     }
    }
   }
  }
 }
 JOINT RightHip
 {
  OFFSET -7.771700 -0.012900 -0.001300
  CHANNELS 3 Yrotation Xrotation Zrotation
  JOINT RightKnee
  {
   OFFSET 0.000000 -40.869800 0.001200
   CHANNELS 3 Yrotation Xrotation Zrotation
   JOINT RightAnkle
   {
    OFFSET 0.000000 -39.717900 0.002100
    CHANNELS 3 Yrotation Xrotation Zrotation
    JOINT RightToe
    {
     OFFSET 0.000000 -4.965400 11.033500
     CHANNELS 3 Yrotation Xrotation Zrotation
     End Site
     {
      OFFSET 0.000000 -1.423100 5.872300
     }
    }
   }
  }
 }
 JOINT LeftHip
 {
  OFFSET 7.771700 -0.012900 -0.001300
  CHANNELS 3 Yrotation Xrotation Zrotation
  JOINT LeftKnee
  {
   OFFSET 0.000000 -40.869800 0.001200
   CHANNELS 3 Yrotation Xrotation Zrotation
   JOINT LeftAnkle
   {
    OFFSET 0.000000 -39.717900 0.002100
    CHANNELS 3 Yrotation Xrotation Zrotation
    JOINT LeftToe
    {
     OFFSET 0.000000 -4.965400 11.033500
     CHANNELS 3 Yrotation Xrotation Zrotation
     End Site
     {
      OFFSET 0.000000 -1.423100 5.872300
     }
    }
   }
  }
 }
}
MOTION
Frames: 16
Frame Time: 0.008333
1.371553 55.152285 -20.309506 177.292221 -15.226821 -1.547254 0.693183 14.689006 0.609272 0.073861 1.354326 0.076994 0.122369 2.254245 0.112935 0.805462 13.272651 0.783498 0.813884 13.357954 -3.046072 1.550783 -11.650843 -3.391004 -0.294152 -0.225384 2.764392 2.901873 -4.874616 -9.026995 -61.770645 -65.106418 92.832374 -14.180053 -8.247705 4.725672 -5.793688 -2.055157 1.975633 1.479544 -9.353878 7.838550 42.954311 -51.072164 -83.141401 7.985972 -12.066497 3.678215 1.327513 -59.965405 13.902768 -104.879152 88.260826 -108.295991 -11.851470 -22.520274 14.111113 0.015875 0.056885 -0.244131 10.750624 -56.640183 -5.114251 114.641507 76.647581 113.529994 -5.804009 -24.172339 -0.094353 -0.033233 0.197748 -0.016941
1.370032 55.150867 -20.308756 177.280662 -15.239583 -1.552515 0.706237 14.696292 0.614851 0.072975 1.348376 0.072973 0.125746 2.253840 0.113369 0.810540 13.271242 0.780997 0.816483 13.288101 -3.073825 1.560529 -11.722401 -3.422123 -0.295714 -0.235946 2.767369 2.915007 -4.862097 -9.040055 -61.761913 -65.099768 92.839025 -14.187180 -8.253985 4.719835 -5.784199 -2.056643 1.986494 1.485758 -9.344881 7.817636 42.956111 -51.079116 -83.145536 7.982999 -12.058172 3.675714 1.307255 -59.951135 13.920466 -104.808769 88.254457 -108.230985 -11.863472 -22.517703 14.151070 0.053297 0.042904 -0.205995 10.729709 -56.633271 -5.086427 114.654348 76.643504 113.534898 -5.805213 -24.171466 -0.094690 -0.031251 0.197382 -0.016594
1.371883 55.151142 -20.312902 177.256298 -15.283948 -1.571943 0.737728 14.734872 0.639449 0.077745 1.329975 0.064148 0.124327 2.267466 0.120310 0.811588 13.273894 0.781545 0.817768 13.255190 -3.087029 1.573696 -11.820555 -3.468514 -0.294395 -0.250573 2.765121 2.923828 -4.854092 -9.043164 -61.748677 -65.102917 92.844463 -14.196214 -8.258720 4.709447 -5.774960 -2.063200 1.992499 1.501486 -9.339635 7.795817 42.947438 -51.088091 -83.143269 7.998113 -12.097556 3.672652 1.269068 -59.901635 14.009813 -104.023733 88.208649 -107.415961 -12.103960 -22.497826 14.223050 0.023571 0.043401 -0.171995 10.688626 -56.599031 -5.017766 114.665254 76.638274 113.537272 -5.799702 -24.140816 -0.093053 -0.037384 0.167848 -0.019538
1.369705 55.149982 -20.311845 177.255086 -15.293784 -1.573096 0.744324 14.732060 0.636750 0.076875 1.328908 0.063704 0.125125 2.266508 0.119484 0.811799 13.280059 0.784813 0.819113 13.225149 -3.099168 1.584670 -11.902971 -3.508956 -0.290618 -0.263829 2.761446 2.947654 -4.876897 -9.059123 -61.708004 -65.073828 92.795149 -14.186988 -8.255822 4.765215 -5.757868 -2.079986 1.996980 1.505079 -9.325675 7.775504 42.949380 -51.089755 -83.142683 7.998878 -12.098858 3.662047 1.246913 -59.889486 14.047812 -103.642689 88.182653 -107.015671 -12.328947 -22.483260 14.298967 0.014067 0.047878 -0.159282 10.671293 -56.594563 -5.003394 114.675384 76.637175 113.539269 -5.802356 -24.135807 -0.089791 -0.031883 0.165865 -0.019458
1.369748 55.149172 -20.311418 177.246859 -15.308107 -1.583445 0.758683 14.732049 0.644917 0.079030 1.329267 0.063086 0.127304 2.261685 0.116765 0.822370 13.268770 0.772456 0.814315 13.184912 -3.106381 1.590762 -11.938032 -3.523926 -0.288452 -0.283244 2.754656 2.938397 -4.855408 -9.038806 -61.682205 -65.053748 92.763819 -14.187185 -8.257200 4.775930 -5.762598 -2.065626 2.022837 1.511776 -9.319960 7.753752 42.964051 -51.089474 -83.150763 7.990333 -12.098430 3.654584 1.224313 -59.870192 14.056187 -103.749562 88.197913 -107.145722 -12.215164 -22.496332 14.332389 0.021511 0.030256 -0.163795 10.643972 -56.588406 -4.966549 114.705924 76.635322 113.564753 -5.806017 -24.134122 -0.091870 -0.026551 0.162519 -0.016216
1.370119 55.148342 -20.310698 177.237664 -15.320527 -1.593589 0.774211 14.732196 0.653603 0.082470 1.327229 0.062110 0.128852 2.260688 0.115943 0.819894 13.279767 0.777234 0.826037 13.092547 -3.154667 1.576763 -11.890521 -3.488758 -0.287735 -0.306671 2.747424 2.941821 -4.855885 -9.040818 -61.660690 -65.049766 92.762556 -14.200473 -8.260544 4.764184 -5.762160 -2.066464 2.027295 1.530901 -9.330911 7.733974 43.011211 -51.100847 -83.179099 7.986190 -12.072280 3.645761 1.201347 -59.854122 14.082072 -103.589762 88.195483 -106.995162 -12.179513 -22.499534 14.370111 0.023309 0.020339 -0.161806 10.622387 -56.582762 -4.934609 114.726622 76.634766 113.588428 -5.815977 -24.133195 -0.097801 -0.013906 0.161043 -0.011020
1.368817 55.147442 -20.309905 177.232049 -15.331768 -1.593062 0.787888 14.728865 0.650158 0.081756 1.328078 0.063154 0.130388 2.259748 0.115127 0.829006 13.274620 0.772215 0.824384 13.053554 -3.169903 1.575237 -11.928103 -3.501427 -0.303625 -0.309502 2.755344 2.947284 -4.862334 -9.044414 -61.680044 -65.068406 92.815271 -14.225521 -8.254196 4.747342 -5.770021 -2.064440 2.043521 1.556049 -9.348518 7.708253 42.982877 -51.098657 -83.158837 7.981413 -12.074683 3.645035 1.168856 -59.838523 14.124605 -103.302115 88.173085 -106.714306 -12.239071 -22.492669 14.412600 0.018213 0.016003 -0.152657 10.620979 -56.573493 -4.928056 114.726890 76.633491 113.588160 -5.823668 -24.133012 -0.096805 -0.007376 0.162284 -0.008375
1.369250 55.146926 -20.310196 177.216872 -15.350686 -1.598938 0.815890 14.725583 0.655290 0.079623 1.336447 0.065574 0.131726 2.258895 0.114328 0.835497 13.272132 0.768242 0.820063 13.032736 -3.177294 1.573394 -11.957507 -3.511162 -0.313530 -0.323495 2.756914 2.949077 -4.859305 -9.041081 -61.671116 -65.064022 92.811032 -14.226227 -8.253397 4.760746 -5.774653 -2.065246 2.053348 1.550229 -9.336127 7.707829 43.024777 -51.107496 -83.188932 7.983879 -12.056947 3.646505 1.162970 -59.816825 14.128863 -103.303083 88.182631 -106.736537 -12.059395 -22.503211 14.413810 0.025009 -0.003560 -0.148667 10.609066 -56.559956 -4.898672 114.762756 76.631906 113.620759 -5.824200 -24.136512 -0.095305 -0.004047 0.161136 -0.008104
1.369821 55.146508 -20.310683 177.212339 -15.370808 -1.607895 0.832861 14.731119 0.662234 0.077162 1.340332 0.067061 0.130164 2.262046 0.115735 0.862186 13.245342 0.749746 0.800586 13.035664 -3.167466 1.567018 -11.970803 -3.515025 -0.334835 -0.327467 2.768091 2.948409 -4.847873 -9.032055 -61.648345 -65.048983 92.780743 -14.214368 -8.265772 4.783565 -5.800824 -2.046276 2.075262 1.574329 -9.364698 7.693257 42.993116 -51.099158 -83.169901 7.989105 -12.040541 3.652199 1.138274 -59.791939 14.140159 -103.219009 88.179943 -106.673170 -11.865445 -22.512067 14.399601 0.031361 -0.021992 -0.137626 10.579425 -56.550713 -4.866332 114.811467 76.624103 113.661761 -5.817374 -24.129180 -0.095339 -0.013258 0.152580 -0.008349
1.368834 55.146074 -20.311189 177.214982 -15.390580 -1.609584 0.844622 14.730712 0.657283 0.066370 1.356812 0.075049 0.132625 2.258046 0.113600 0.874867 13.232273 0.740475 0.790676 13.030272 -3.169622 1.557398 -11.986953 -3.521723 -0.346587 -0.321932 2.777323 2.953689 -4.859230 -9.033029 -61.653054 -65.060027 92.792267 -14.201793 -8.297777 4.801703 -5.803333 -2.059786 2.094186 1.584342 -9.362826 7.677885 42.979430 -51.096776 -83.169243 7.976093 -12.062513 3.651047 1.121155 -59.769576 14.162566 -102.942304 88.159965 -106.389445 -11.879775 -22.501597 14.402373 0.026625 -0.026834 -0.114211 10.569378 -56.534947 -4.859452 114.822268 76.621131 113.671923 -5.820032 -24.124470 -0.093675 -0.011814 0.148737 -0.008277
1.368112 55.145466 -20.310701 177.216988 -15.404533 -1.613727 0.850227 14.735750 0.658109 0.072822 1.348167 0.072175 0.134008 2.257304 0.112981 0.880535 13.225781 0.734544 0.778753 13.036823 -3.164740 1.544352 -11.990187 -3.522429 -0.361004 -0.312959 2.788309 2.956204 -4.872032 -9.031255 -61.655602 -65.071433 92.801965 -14.215609 -8.316580 4.796230 -5.817741 -2.042406 2.111324 1.590816 -9.366973 7.673827 43.003201 -51.106620 -83.194281 7.973658 -12.061504 3.656287 1.112313 -59.754700 14.178550 -102.628321 88.141387 -106.065466 -11.884230 -22.486877 14.399304 0.023018 -0.033345 -0.091479 10.566341 -56.525116 -4.853384 114.833825 76.621912 113.685421 -5.825882 -24.122334 -0.090570 -0.008405 0.147987 -0.006178
1.367179 55.144703 -20.309201 177.220996 -15.412234 -1.618748 0.853881 14.734259 0.658224 0.079506 1.338046 0.065980 0.135005 2.255749 0.112152 0.878867 13.233082 0.740817 0.772555 13.044236 -3.159630 1.529221 -11.995353 -3.529797 -0.365139 -0.328354 2.784940 2.950957 -4.873810 -9.022626 -61.727576 -65.101641 92.888032 -14.256304 -8.291944 4.765411 -5.823868 -2.036469 2.119156 1.597057 -9.371741 7.670580 43.015728 -51.114279 -83.209175 7.980290 -12.045574 3.662242 1.102488 -59.745187 14.166996 -102.646359 88.154565 -106.098281 -11.724452 -22.483060 14.371791 0.028123 -0.051273 -0.076767 10.560482 -56.520390 -4.846953 114.818612 76.620739 113.671496 -5.836181 -24.119509 -0.092092 -0.006295 0.152391 -0.000506
1.366183 55.144223 -20.308088 177.222629 -15.422456 -1.624478 0.864134 14.727909 0.659372 0.090553 1.320364 0.056796 0.126515 2.268951 0.120265 0.889279 13.221862 0.734464 0.755861 13.055863 -3.154937 1.510820 -11.978737 -3.521776 -0.380326 -0.349341 2.775128 2.939283 -4.850892 -8.995326 -61.738128 -65.101751 92.904323 -14.269881 -8.286312 4.758069 -5.839989 -2.023111 2.139052 1.604427 -9.376658 7.661167 42.987705 -51.106079 -83.187871 7.969665 -12.067301 3.661817 1.095525 -59.733985 14.157910 -102.672500 88.167755 -106.139859 -11.585389 -22.471117 14.347083 0.033257 -0.068903 -0.061041 10.555156 -56.513211 -4.837062 114.816393 76.620592 113.667863 -5.842059 -24.119266 -0.087612 -0.006467 0.155015 0.000815
1.364396 55.144135 -20.307756 177.220191 -15.437380 -1.626380 0.878494 14.727788 0.657116 0.088283 1.320269 0.055689 0.138446 2.248948 0.110441 0.891393 13.228629 0.740177 0.739807 13.070143 -3.150259 1.490957 -11.964187 -3.513601 -0.396096 -0.341090 2.784200 2.934485 -4.856961 -8.989227 -61.746385 -65.103722 92.919649 -14.277469 -8.301341 4.756941 -5.861150 -2.014786 2.157989 1.618681 -9.385952 7.651262 42.968007 -51.113544 -83.182562 7.965943 -12.069947 3.665208 1.107092 -59.721978 14.163049 -102.420488 88.154415 -105.863680 -11.685356 -22.435496 14.349621 0.026335 -0.070988 -0.037513 10.562944 -56.498954 -4.836655 114.827018 76.625655 113.681327 -5.843203 -24.121969 -0.084017 -0.005664 0.157513 0.002727
1.362135 55.143990 -20.306500 177.220856 -15.446306 -1.628956 0.892692 14.710233 0.645785 0.082217 1.332955 0.064623 0.139474 2.247387 0.110044 0.897383 13.224396 0.738451 0.726183 13.079360 -3.148545 1.470184 -11.950845 -3.507131 -0.407693 -0.328713 2.795407 2.933364 -4.862274 -8.987893 -61.771250 -65.115345 92.953300 -14.290353 -8.312802 4.751061 -5.871882 -2.012776 2.173050 1.622720 -9.392452 7.644288 42.964376 -51.124338 -83.182749 7.963967 -12.076593 3.668170 1.105123 -59.716048 14.192571 -101.947077 88.125844 -105.364710 -11.872014 -22.387270 14.368279 0.016298 -0.069073 -0.014687 10.569058 -56.491476 -4.836767 114.828683 76.631543 113.685015 -5.845314 -24.121837 -0.086571 -0.001534 0.160291 0.007569
1.359536 55.144008 -20.305223 177.214502 -15.455068 -1.630003 0.905514 14.709540 0.644520 0.080484 1.335578 0.066275 0.143546 2.239653 0.105627 0.902645 13.220998 0.736696 0.709134 13.089072 -3.147902 1.451565 -11.938896 -3.501185 -0.419724 -0.335762 2.797071 2.932148 -4.850223 -8.977167 -61.783472 -65.121060 92.971612 -14.285630 -8.352948 4.741471 -5.880267 -2.021355 2.182392 1.631088 -9.407355 7.646738 42.974636 -51.136843 -83.208246 7.976229 -12.065912 3.687324 1.111132 -59.708873 14.204356 -101.568009 88.101006 -104.981359 -11.918126 -22.352210 14.374200 0.012826 -0.073264 -0.003007 10.599288 -56.481126 -4.854065 114.809873 76.632107 113.679461 -5.847451 -24.126688 -0.088153 0.001643 0.165215 0.010723
